<?xml version="1.0" encoding="UTF-8" standalone="no"?><!DOCTYPE svg PUBLIC "-//W3C//DTD SVG 1.1//EN" "http://www.w3.org/Graphics/SVG/1.1/DTD/svg11.dtd"><svg width="100%" height="100%" viewBox="0 0 600 600" version="1.1" xmlns="http://www.w3.org/2000/svg" xmlnsXlink="http://www.w3.org/1999/xlink" xmlSpace="preserve" xmlnsSerif="http://www.serif.com/" style="fill-rule:evenodd;clip-rule:evenodd;stroke-linejoin:round;stroke-miterlimit:2;"><g><path d="M490,133c55.192,-0 100,44.808 100,100c-0,55.192 -44.808,100 -100,100c-55.192,-0 -100,-44.808 -100,-100c-0,-55.192 44.808,-100 100,-100Zm-0,40.063c33.08,-0 59.937,26.857 59.937,59.937c0,33.08 -26.857,59.937 -59.937,59.937c-33.08,0 -59.937,-26.857 -59.937,-59.937c-0,-33.08 26.857,-59.937 59.937,-59.937Z" style="fill:#FFE1BD;"/><path d="M395,2c55.192,0 100,44.808 100,100c-0,55.192 -44.808,100 -100,100c-55.192,-0 -100,-44.808 -100,-100c-0,-55.192 44.808,-100 100,-100Zm-0,40.063c33.08,-0 59.937,26.857 59.937,59.937c0,33.08 -26.857,59.937 -59.937,59.937c-33.08,0 -59.937,-26.857 -59.937,-59.937c-0,-33.08 26.857,-59.937 59.937,-59.937Z" style="fill:#FFE1BD;"/><path d="M300,133c55.192,-0 100,44.808 100,100c-0,55.192 -44.808,100 -100,100c-55.192,-0 -100,-44.808 -100,-100c-0,-55.192 44.808,-100 100,-100Zm-0,40.063c33.08,-0 59.937,26.857 59.937,59.937c0,33.08 -26.857,59.937 -59.937,59.937c-33.08,0 -59.937,-26.857 -59.937,-59.937c-0,-33.08 26.857,-59.937 59.937,-59.937Z" style="fill:#FFE1BD;"/><path d="M205,2c55.192,0 100,44.808 100,100c-0,55.192 -44.808,100 -100,100c-55.192,-0 -100,-44.808 -100,-100c-0,-55.192 44.808,-100 100,-100Zm-0,40.063c33.08,-0 59.937,26.857 59.937,59.937c0,33.08 -26.857,59.937 -59.937,59.937c-33.08,0 -59.937,-26.857 -59.937,-59.937c-0,-33.08 26.857,-59.937 59.937,-59.937Z" style="fill:#FFE1BD;"/><path d="M110,133c55.192,-0 100,44.808 100,100c-0,55.192 -44.808,100 -100,100c-55.192,-0 -100,-44.808 -100,-100c0,-55.192 44.808,-100 100,-100Zm-0,40.063c33.08,-0 59.937,26.857 59.937,59.937c0,33.08 -26.857,59.937 -59.937,59.937c-33.08,0 -59.937,-26.857 -59.937,-59.937c-0,-33.08 26.857,-59.937 59.937,-59.937Z" style="fill:#FFE1BD;"/><path d="M600,233l-600,0l150,366.99l300,0l150,-366.99Z" style="fill:#111;"/></g></svg>