<?xml version="1.0" encoding="UTF-8" standalone="no"?><!DOCTYPE svg PUBLIC "-//W3C//DTD SVG 1.1//EN" "http://www.w3.org/Graphics/SVG/1.1/DTD/svg11.dtd"><svg width="100%" height="100%" viewBox="0 0 600 600" version="1.1" xmlns="http://www.w3.org/2000/svg" xmlnsXlink="http://www.w3.org/1999/xlink" xmlSpace="preserve" xmlnsSerif="http://www.serif.com/" style="fill-rule:evenodd;clip-rule:evenodd;stroke-linecap:round;stroke-linejoin:round;stroke-miterlimit:1.5;"><g><path d="M487.467,135.688c54.455,-0 98.666,44.359 98.666,98.998c0,54.639 -44.211,98.998 -98.666,98.998c-54.456,0 -98.667,-44.359 -98.667,-98.998c-0,-54.639 44.211,-98.998 98.667,-98.998Zm-0,39.661c32.639,0 59.138,26.588 59.138,59.337c-0,32.749 -26.499,59.337 -59.138,59.337c-32.64,-0 -59.138,-26.588 -59.138,-59.337c-0,-32.749 26.498,-59.337 59.138,-59.337Z" style="fill:#ffe1bd;stroke:#111;stroke-width:12px;"/><path d="M393.733,6c54.456,-0 98.667,44.36 98.667,98.998c-0,54.639 -44.211,98.999 -98.667,98.999c-54.455,-0 -98.666,-44.36 -98.666,-98.999c-0,-54.638 44.211,-98.998 98.666,-98.998Zm0,39.661c32.64,0 59.138,26.588 59.138,59.337c0,32.749 -26.498,59.337 -59.138,59.337c-32.639,0 -59.138,-26.588 -59.138,-59.337c0,-32.749 26.499,-59.337 59.138,-59.337Z" style="fill:#ffe1bd;stroke:#111;stroke-width:12px;"/><path d="M300,135.688c54.456,-0 98.667,44.359 98.667,98.998c-0,54.639 -44.211,98.998 -98.667,98.998c-54.456,0 -98.667,-44.359 -98.667,-98.998c0,-54.639 44.211,-98.998 98.667,-98.998Zm-0,39.661c32.639,0 59.138,26.588 59.138,59.337c0,32.749 -26.499,59.337 -59.138,59.337c-32.639,-0 -59.138,-26.588 -59.138,-59.337c-0,-32.749 26.499,-59.337 59.138,-59.337Z" style="fill:#ffe1bd;stroke:#111;stroke-width:12px;"/><path d="M206.267,6c54.455,-0 98.666,44.36 98.666,98.998c0,54.639 -44.211,98.999 -98.666,98.999c-54.456,-0 -98.667,-44.36 -98.667,-98.999c-0,-54.638 44.211,-98.998 98.667,-98.998Zm-0,39.661c32.639,0 59.138,26.588 59.138,59.337c-0,32.749 -26.499,59.337 -59.138,59.337c-32.64,0 -59.138,-26.588 -59.138,-59.337c-0,-32.749 26.498,-59.337 59.138,-59.337Z" style="fill:#ffe1bd;stroke:#111;stroke-width:12px;"/><path d="M112.533,135.688c54.456,-0 98.667,44.359 98.667,98.998c-0,54.639 -44.211,98.998 -98.667,98.998c-54.455,0 -98.666,-44.359 -98.666,-98.998c-0,-54.639 44.211,-98.998 98.666,-98.998Zm0,39.661c32.64,0 59.138,26.588 59.138,59.337c0,32.749 -26.498,59.337 -59.138,59.337c-32.639,-0 -59.138,-26.588 -59.138,-59.337c0,-32.749 26.499,-59.337 59.138,-59.337Z" style="fill:#ffe1bd;stroke:#111;stroke-width:12px;"/><path d="M596,234.686l-592,0l148,363.314l296,0l148,-363.314Z" style="fill:#fdf6ec;stroke:#111;stroke-width:12px;stroke-linecap:butt;"/></g></svg>